<mxfile host="app.diagrams.net" agent="Mozilla/5.0 (Windows NT 10.0; Win64; x64; rv:142.0) Gecko/20100101 Firefox/142.0" version="28.2.3">
  <diagram name="Page-1" id="Oap9Uj49-vAxEfMM_Ddv">
    <mxGraphModel dx="2377" dy="1252" grid="1" gridSize="10" guides="1" tooltips="1" connect="1" arrows="1" fold="1" page="1" pageScale="1" pageWidth="850" pageHeight="1100" math="0" shadow="0">
      <root>
        <mxCell id="0" />
        <mxCell id="1" parent="0" />
        <mxCell id="5G9Hfgs1YEClRX-4D4DC-1" value="AWS VPC Private Subnet" style="rounded=1;whiteSpace=wrap;html=1;verticalAlign=top;container=0;" parent="1" vertex="1">
          <mxGeometry x="390" y="105" width="440" height="440" as="geometry" />
        </mxCell>
        <mxCell id="JU4nquK_jm7ar9zYCTRF-6" value="&lt;div&gt;AWS VPC Public Subnet&lt;/div&gt;" style="rounded=1;whiteSpace=wrap;html=1;verticalAlign=top;" vertex="1" parent="1">
          <mxGeometry x="140" y="247.5" width="170" height="155" as="geometry" />
        </mxCell>
        <mxCell id="5G9Hfgs1YEClRX-4D4DC-7" value="&lt;h1 style=&quot;margin-top: 0px;&quot;&gt;Flex Gateway Infrastructure Diagram&lt;/h1&gt;&lt;p&gt;Only the ALB is external. All other networking is internal (private) only&lt;/p&gt;" style="text;html=1;whiteSpace=wrap;overflow=hidden;rounded=0;align=center;" parent="1" vertex="1">
          <mxGeometry x="200" y="10" width="450" height="120" as="geometry" />
        </mxCell>
        <mxCell id="5G9Hfgs1YEClRX-4D4DC-30" value="" style="points=[[0.23,0.5,0,0,0],[0.71,0.5,0,0,0],[0.97,0.96,0,0,0]];aspect=fixed;html=1;align=center;shadow=0;dashed=0;fillColor=#FF6A00;strokeColor=none;shape=mxgraph.alibaba_cloud.alb_application_load_balancer_01;pointerEvents=0;verticalAlign=top;fontFamily=Helvetica;fontSize=12;fontColor=default;movable=1;resizable=1;rotatable=1;deletable=1;editable=1;locked=0;connectable=1;" parent="1" vertex="1">
          <mxGeometry x="177.84" y="285" width="94.33" height="80" as="geometry" />
        </mxCell>
        <mxCell id="5G9Hfgs1YEClRX-4D4DC-39" value="&lt;div&gt;Public ALB&lt;/div&gt;" style="text;html=1;align=center;verticalAlign=middle;whiteSpace=wrap;rounded=0;fontFamily=Helvetica;fontSize=12;fontColor=default;" parent="1" vertex="1">
          <mxGeometry x="195" y="365" width="60" height="30" as="geometry" />
        </mxCell>
        <mxCell id="JU4nquK_jm7ar9zYCTRF-2" value="" style="group" vertex="1" connectable="0" parent="1">
          <mxGeometry x="710" y="255" width="130" height="90" as="geometry" />
        </mxCell>
        <mxCell id="JU4nquK_jm7ar9zYCTRF-1" value="" style="outlineConnect=0;dashed=0;verticalLabelPosition=bottom;verticalAlign=top;align=center;html=1;shape=mxgraph.aws3.elasticache;fillColor=#2E73B8;gradientColor=none;" vertex="1" parent="JU4nquK_jm7ar9zYCTRF-2">
          <mxGeometry x="40.620000000000005" width="48.75" height="60" as="geometry" />
        </mxCell>
        <mxCell id="5G9Hfgs1YEClRX-4D4DC-14" value="&lt;div&gt;Elasticache&lt;/div&gt;" style="text;html=1;align=center;verticalAlign=middle;whiteSpace=wrap;rounded=0;fontFamily=Helvetica;fontSize=12;fontColor=default;" parent="JU4nquK_jm7ar9zYCTRF-2" vertex="1">
          <mxGeometry y="60" width="130" height="30" as="geometry" />
        </mxCell>
        <mxCell id="JU4nquK_jm7ar9zYCTRF-8" value="" style="group" vertex="1" connectable="0" parent="1">
          <mxGeometry x="440" y="155" width="250" height="370" as="geometry" />
        </mxCell>
        <mxCell id="5G9Hfgs1YEClRX-4D4DC-2" value="EC2 Instance" style="rounded=1;whiteSpace=wrap;html=1;verticalAlign=top;labelBackgroundColor=none;fillColor=#dae8fc;strokeColor=#6c8ebf;" parent="JU4nquK_jm7ar9zYCTRF-8" vertex="1">
          <mxGeometry width="230" height="150" as="geometry" />
        </mxCell>
        <mxCell id="JU4nquK_jm7ar9zYCTRF-42" value="Autoscaling Group" style="rounded=1;whiteSpace=wrap;html=1;fillColor=#e1d5e7;strokeColor=#9673a6;verticalAlign=top;" vertex="1" parent="JU4nquK_jm7ar9zYCTRF-8">
          <mxGeometry x="-30" y="-20" width="280" height="390" as="geometry" />
        </mxCell>
        <mxCell id="5G9Hfgs1YEClRX-4D4DC-10" value="" style="group" parent="JU4nquK_jm7ar9zYCTRF-8" vertex="1" connectable="0">
          <mxGeometry x="30" y="30" width="170" height="170" as="geometry" />
        </mxCell>
        <mxCell id="5G9Hfgs1YEClRX-4D4DC-9" value="" style="rounded=0;whiteSpace=wrap;html=1;" parent="5G9Hfgs1YEClRX-4D4DC-10" vertex="1">
          <mxGeometry y="10" width="170" height="100" as="geometry" />
        </mxCell>
        <mxCell id="5G9Hfgs1YEClRX-4D4DC-3" value="" style="shape=image;html=1;verticalAlign=top;verticalLabelPosition=bottom;labelBackgroundColor=#ffffff;imageAspect=0;aspect=fixed;image=https://icons.diagrams.net/icon-cache1/Ionicons_Fill_Vol_2-2187/logo-docker-1464.svg" parent="5G9Hfgs1YEClRX-4D4DC-10" vertex="1">
          <mxGeometry x="64.99666666666667" y="-10" width="40" height="40" as="geometry" />
        </mxCell>
        <mxCell id="5G9Hfgs1YEClRX-4D4DC-23" value="&lt;div style=&quot;line-height: 100%;&quot;&gt;Nginx Health Check :80&lt;/div&gt;" style="rounded=1;whiteSpace=wrap;html=1;pointerEvents=0;align=center;verticalAlign=middle;fontFamily=Helvetica;fontSize=12;fontColor=default;fillColor=none;gradientColor=none;" parent="5G9Hfgs1YEClRX-4D4DC-10" vertex="1">
          <mxGeometry x="26.5" y="70" width="117" height="30" as="geometry" />
        </mxCell>
        <mxCell id="JU4nquK_jm7ar9zYCTRF-7" value="&lt;div style=&quot;line-height: 100%;&quot;&gt;&lt;div&gt;&lt;div&gt;&lt;font&gt;Flex-Gateway&lt;/font&gt;&lt;/div&gt;&lt;div&gt;&lt;font&gt;:8081&lt;/font&gt;&lt;/div&gt;&lt;/div&gt;&lt;/div&gt;" style="rounded=1;whiteSpace=wrap;html=1;pointerEvents=0;align=center;verticalAlign=middle;fontFamily=Helvetica;fontSize=12;fontColor=default;fillColor=none;gradientColor=none;" vertex="1" parent="5G9Hfgs1YEClRX-4D4DC-10">
          <mxGeometry x="26.5" y="30" width="117" height="30" as="geometry" />
        </mxCell>
        <mxCell id="JU4nquK_jm7ar9zYCTRF-43" value="" style="sketch=0;outlineConnect=0;fontColor=#232F3E;gradientColor=none;fillColor=#ED7100;strokeColor=none;dashed=0;verticalLabelPosition=bottom;verticalAlign=top;align=center;html=1;fontSize=12;fontStyle=0;aspect=fixed;pointerEvents=1;shape=mxgraph.aws4.auto_scaling2;" vertex="1" parent="JU4nquK_jm7ar9zYCTRF-8">
          <mxGeometry x="200" y="-10" width="40" height="40" as="geometry" />
        </mxCell>
        <mxCell id="JU4nquK_jm7ar9zYCTRF-9" value="" style="group" vertex="1" connectable="0" parent="1">
          <mxGeometry x="440" y="335" width="230" height="200" as="geometry" />
        </mxCell>
        <mxCell id="JU4nquK_jm7ar9zYCTRF-10" value="EC2 Instance" style="rounded=1;whiteSpace=wrap;html=1;verticalAlign=top;labelBackgroundColor=none;fillColor=#dae8fc;strokeColor=#6c8ebf;" vertex="1" parent="JU4nquK_jm7ar9zYCTRF-9">
          <mxGeometry width="230" height="150" as="geometry" />
        </mxCell>
        <mxCell id="JU4nquK_jm7ar9zYCTRF-11" value="" style="group" vertex="1" connectable="0" parent="JU4nquK_jm7ar9zYCTRF-9">
          <mxGeometry x="30" y="30" width="170" height="170" as="geometry" />
        </mxCell>
        <mxCell id="JU4nquK_jm7ar9zYCTRF-12" value="" style="rounded=0;whiteSpace=wrap;html=1;" vertex="1" parent="JU4nquK_jm7ar9zYCTRF-11">
          <mxGeometry y="10" width="170" height="100" as="geometry" />
        </mxCell>
        <mxCell id="JU4nquK_jm7ar9zYCTRF-13" value="" style="shape=image;html=1;verticalAlign=top;verticalLabelPosition=bottom;labelBackgroundColor=#ffffff;imageAspect=0;aspect=fixed;image=https://icons.diagrams.net/icon-cache1/Ionicons_Fill_Vol_2-2187/logo-docker-1464.svg" vertex="1" parent="JU4nquK_jm7ar9zYCTRF-11">
          <mxGeometry x="64.99666666666667" y="-10" width="40" height="40" as="geometry" />
        </mxCell>
        <mxCell id="JU4nquK_jm7ar9zYCTRF-14" value="&lt;div&gt;Nginx Health Check&lt;/div&gt;&lt;div&gt;:80&lt;/div&gt;" style="rounded=1;whiteSpace=wrap;html=1;pointerEvents=0;align=center;verticalAlign=middle;fontFamily=Helvetica;fontSize=12;fontColor=default;fillColor=none;gradientColor=none;" vertex="1" parent="JU4nquK_jm7ar9zYCTRF-11">
          <mxGeometry x="26.5" y="70" width="117" height="30" as="geometry" />
        </mxCell>
        <mxCell id="JU4nquK_jm7ar9zYCTRF-15" value="&lt;div style=&quot;line-height: 100%;&quot;&gt;&lt;div&gt;Flex-Gateway&lt;/div&gt;&lt;div&gt;:8081&lt;/div&gt;&lt;/div&gt;" style="rounded=1;whiteSpace=wrap;html=1;pointerEvents=0;align=center;verticalAlign=middle;fontFamily=Helvetica;fontSize=12;fontColor=default;fillColor=none;gradientColor=none;" vertex="1" parent="JU4nquK_jm7ar9zYCTRF-11">
          <mxGeometry x="26.5" y="30" width="117" height="30" as="geometry" />
        </mxCell>
        <mxCell id="JU4nquK_jm7ar9zYCTRF-26" value="&lt;font style=&quot;font-size: 28px;&quot;&gt;...&lt;/font&gt;" style="text;html=1;align=center;verticalAlign=middle;whiteSpace=wrap;rounded=0;" vertex="1" parent="JU4nquK_jm7ar9zYCTRF-11">
          <mxGeometry x="55" y="125" width="60" height="30" as="geometry" />
        </mxCell>
        <mxCell id="JU4nquK_jm7ar9zYCTRF-19" style="edgeStyle=orthogonalEdgeStyle;rounded=0;orthogonalLoop=1;jettySize=auto;html=1;exitX=1;exitY=0.5;exitDx=0;exitDy=0;entryX=0.29;entryY=0.5;entryDx=0;entryDy=0;entryPerimeter=0;" edge="1" parent="1" source="JU4nquK_jm7ar9zYCTRF-7" target="JU4nquK_jm7ar9zYCTRF-1">
          <mxGeometry relative="1" as="geometry">
            <Array as="points">
              <mxPoint x="710" y="210" />
              <mxPoint x="710" y="285" />
            </Array>
          </mxGeometry>
        </mxCell>
        <mxCell id="JU4nquK_jm7ar9zYCTRF-21" style="edgeStyle=orthogonalEdgeStyle;rounded=0;orthogonalLoop=1;jettySize=auto;html=1;exitX=1;exitY=0.5;exitDx=0;exitDy=0;entryX=0.29;entryY=0.5;entryDx=0;entryDy=0;entryPerimeter=0;" edge="1" parent="1" source="JU4nquK_jm7ar9zYCTRF-15" target="JU4nquK_jm7ar9zYCTRF-1">
          <mxGeometry relative="1" as="geometry">
            <Array as="points">
              <mxPoint x="710" y="385" />
              <mxPoint x="710" y="285" />
            </Array>
          </mxGeometry>
        </mxCell>
        <mxCell id="JU4nquK_jm7ar9zYCTRF-23" style="edgeStyle=orthogonalEdgeStyle;rounded=0;orthogonalLoop=1;jettySize=auto;html=1;exitX=0.71;exitY=0.5;exitDx=0;exitDy=0;exitPerimeter=0;entryX=0;entryY=0.5;entryDx=0;entryDy=0;" edge="1" parent="1" source="5G9Hfgs1YEClRX-4D4DC-30" target="JU4nquK_jm7ar9zYCTRF-7">
          <mxGeometry relative="1" as="geometry">
            <Array as="points">
              <mxPoint x="420" y="325" />
              <mxPoint x="420" y="230" />
            </Array>
          </mxGeometry>
        </mxCell>
        <mxCell id="JU4nquK_jm7ar9zYCTRF-24" style="edgeStyle=orthogonalEdgeStyle;rounded=0;orthogonalLoop=1;jettySize=auto;html=1;exitX=0.71;exitY=0.5;exitDx=0;exitDy=0;exitPerimeter=0;entryX=0;entryY=0.5;entryDx=0;entryDy=0;" edge="1" parent="1" source="5G9Hfgs1YEClRX-4D4DC-30" target="JU4nquK_jm7ar9zYCTRF-15">
          <mxGeometry relative="1" as="geometry">
            <Array as="points">
              <mxPoint x="420" y="325" />
              <mxPoint x="420" y="410" />
            </Array>
          </mxGeometry>
        </mxCell>
        <mxCell id="JU4nquK_jm7ar9zYCTRF-25" value="&lt;div&gt;Users&lt;/div&gt;&lt;div&gt;:443&lt;/div&gt;" style="text;html=1;align=center;verticalAlign=middle;whiteSpace=wrap;rounded=0;" vertex="1" parent="1">
          <mxGeometry x="320" y="295" width="60" height="30" as="geometry" />
        </mxCell>
        <mxCell id="JU4nquK_jm7ar9zYCTRF-27" value="" style="image;aspect=fixed;html=1;points=[[0,0.5,0,-2,0],[0.5,0,0,0,0]];align=center;fontSize=12;image=img/lib/azure2/other/Grafana.svg;" vertex="1" parent="1">
          <mxGeometry x="670" y="565" width="68" height="52.800000000000004" as="geometry" />
        </mxCell>
        <mxCell id="JU4nquK_jm7ar9zYCTRF-35" value="Logs and Metric sent to Grafana (Refer to Grafana Architecture Diagram)" style="text;html=1;align=center;verticalAlign=middle;whiteSpace=wrap;rounded=0;" vertex="1" parent="1">
          <mxGeometry x="629" y="625" width="150" height="30" as="geometry" />
        </mxCell>
        <mxCell id="JU4nquK_jm7ar9zYCTRF-36" style="edgeStyle=orthogonalEdgeStyle;rounded=0;orthogonalLoop=1;jettySize=auto;html=1;exitX=1;exitY=0.75;exitDx=0;exitDy=0;entryX=0.5;entryY=0;entryDx=0;entryDy=0;entryPerimeter=0;dashed=1;" edge="1" parent="1" source="JU4nquK_jm7ar9zYCTRF-10" target="JU4nquK_jm7ar9zYCTRF-27">
          <mxGeometry relative="1" as="geometry" />
        </mxCell>
        <mxCell id="JU4nquK_jm7ar9zYCTRF-37" style="edgeStyle=orthogonalEdgeStyle;rounded=0;orthogonalLoop=1;jettySize=auto;html=1;exitX=1;exitY=0.75;exitDx=0;exitDy=0;entryX=0.5;entryY=0;entryDx=0;entryDy=0;entryPerimeter=0;dashed=1;" edge="1" parent="1" source="5G9Hfgs1YEClRX-4D4DC-2" target="JU4nquK_jm7ar9zYCTRF-27">
          <mxGeometry relative="1" as="geometry" />
        </mxCell>
        <mxCell id="JU4nquK_jm7ar9zYCTRF-41" value="&lt;div&gt;Internal Healthcheck&lt;/div&gt;" style="text;html=1;align=center;verticalAlign=middle;whiteSpace=wrap;rounded=0;" vertex="1" parent="1">
          <mxGeometry x="320" y="365" width="60" height="30" as="geometry" />
        </mxCell>
        <mxCell id="JU4nquK_jm7ar9zYCTRF-40" style="edgeStyle=orthogonalEdgeStyle;rounded=0;orthogonalLoop=1;jettySize=auto;html=1;entryX=0;entryY=0.5;entryDx=0;entryDy=0;dashed=1;" edge="1" parent="1" target="5G9Hfgs1YEClRX-4D4DC-23">
          <mxGeometry relative="1" as="geometry">
            <mxPoint x="270" y="365" as="sourcePoint" />
            <Array as="points">
              <mxPoint x="430" y="365" />
              <mxPoint x="430" y="270" />
            </Array>
          </mxGeometry>
        </mxCell>
        <mxCell id="JU4nquK_jm7ar9zYCTRF-39" style="edgeStyle=orthogonalEdgeStyle;rounded=0;orthogonalLoop=1;jettySize=auto;html=1;exitX=0.97;exitY=0.96;exitDx=0;exitDy=0;exitPerimeter=0;entryX=0;entryY=0.5;entryDx=0;entryDy=0;dashed=1;" edge="1" parent="1" source="5G9Hfgs1YEClRX-4D4DC-30" target="JU4nquK_jm7ar9zYCTRF-14">
          <mxGeometry relative="1" as="geometry">
            <mxPoint x="350" y="525" as="targetPoint" />
            <Array as="points">
              <mxPoint x="269" y="365" />
              <mxPoint x="430" y="365" />
              <mxPoint x="430" y="450" />
            </Array>
          </mxGeometry>
        </mxCell>
        <mxCell id="JU4nquK_jm7ar9zYCTRF-45" value="" style="verticalLabelPosition=bottom;sketch=0;html=1;fillColor=#282828;strokeColor=none;verticalAlign=top;pointerEvents=1;align=center;shape=mxgraph.cisco_safe.people_places_things_icons.icon9;" vertex="1" parent="1">
          <mxGeometry x="10" y="295" width="65" height="60" as="geometry" />
        </mxCell>
        <mxCell id="JU4nquK_jm7ar9zYCTRF-47" style="edgeStyle=orthogonalEdgeStyle;rounded=0;orthogonalLoop=1;jettySize=auto;html=1;entryX=0.23;entryY=0.5;entryDx=0;entryDy=0;entryPerimeter=0;" edge="1" parent="1" source="JU4nquK_jm7ar9zYCTRF-45" target="5G9Hfgs1YEClRX-4D4DC-30">
          <mxGeometry relative="1" as="geometry" />
        </mxCell>
        <mxCell id="JU4nquK_jm7ar9zYCTRF-48" value="&lt;div&gt;Users&lt;/div&gt;&lt;div&gt;:443&lt;/div&gt;" style="text;html=1;align=center;verticalAlign=middle;whiteSpace=wrap;rounded=0;" vertex="1" parent="1">
          <mxGeometry x="80" y="295" width="60" height="30" as="geometry" />
        </mxCell>
      </root>
    </mxGraphModel>
  </diagram>
</mxfile>
